<svg width="19" height="19" viewBox="0 0 19 19" fill="none" xmlns="http://www.w3.org/2000/svg">
<path d="M5.96974 7.98686C6.0679 8.08853 6.11528 8.08514 6.21344 7.98686C7.26273 6.92952 8.31539 5.87896 9.36467 4.82162C9.45268 4.73351 9.50007 4.71995 9.59822 4.81823C10.617 5.84846 11.6426 6.87191 12.6682 7.89875C12.7393 7.96992 12.8138 8.03769 12.8882 8.10886C12.9424 8.09869 12.9729 8.05803 13.0101 8.02075C13.5923 7.43786 14.1778 6.85496 14.7566 6.26868C14.7905 6.23479 14.8413 6.20768 14.8379 6.14668C14.8379 6.13313 14.8379 6.12296 14.8379 6.1094C14.8345 6.03146 14.7668 5.99757 14.7228 5.95351C13.0304 4.25567 11.338 2.56121 9.64223 0.866757C9.48314 0.710867 9.48314 0.707479 9.32744 0.866757C7.66213 2.5341 5.99682 4.20145 4.3315 5.86879C4.28412 5.91624 4.22658 5.95351 4.20965 6.02468C4.11826 6.10263 4.14534 6.16024 4.22658 6.23818C4.81214 6.81769 5.39432 7.40058 5.96974 7.98686Z" fill="white"/>
<path d="M14.7465 12.7178C14.1677 12.1383 13.5923 11.5588 13.0135 10.9827C12.9762 10.9454 12.9458 10.9047 12.8916 10.8945C12.8409 10.942 12.7901 10.986 12.7427 11.0335C11.7002 12.0773 10.6543 13.1211 9.61516 14.1716C9.51023 14.2767 9.46284 14.2767 9.35791 14.1716C8.31201 13.1143 7.25596 12.0637 6.20668 11.0098C6.11191 10.9149 6.06113 10.9183 5.97313 11.0132C5.8242 11.1724 5.66173 11.3215 5.50264 11.4741C5.47557 11.4808 5.44849 11.4944 5.42818 11.5147C5.00508 11.9383 4.58198 12.3586 4.16227 12.7856C4.14873 12.7991 4.14535 12.8127 4.14196 12.8296C4.10473 12.9042 4.18596 12.9279 4.20627 12.9787C4.21981 13.0431 4.27397 13.0804 4.31797 13.1244C5.99005 14.7986 7.66552 16.4761 9.3376 18.1502C9.48315 18.2959 9.48315 18.2959 9.62869 18.1502C11.3312 16.4456 13.0304 14.7443 14.7329 13.0397C14.7736 12.9991 14.8379 12.9686 14.8379 12.894C14.8311 12.8737 14.8277 12.8499 14.8209 12.8296C14.8176 12.7754 14.7769 12.7483 14.7465 12.7178Z" fill="white"/>
<path d="M9.62185 7.58696C9.59138 7.55646 9.5643 7.5158 9.51692 7.50902C9.49661 7.50902 9.4763 7.50902 9.45599 7.50902C9.40861 7.51918 9.38153 7.55646 9.35106 7.58696C8.75873 8.18002 8.16639 8.76969 7.57744 9.36275C7.54697 9.39325 7.50636 9.42036 7.49959 9.46781C7.49959 9.47798 7.4962 9.48814 7.48943 9.49831C7.47589 9.5627 7.53005 9.58642 7.5639 9.62031C8.16301 10.2235 8.7655 10.8234 9.3646 11.4266C9.45599 11.5181 9.51353 11.5249 9.61169 11.43C10.204 10.8302 10.8031 10.2337 11.3989 9.63386C11.4293 9.60336 11.4699 9.57625 11.4801 9.52881C11.4801 9.50848 11.4801 9.48814 11.4801 9.46781C11.4699 9.42036 11.4327 9.39325 11.4022 9.36275C10.8031 8.76969 10.2142 8.18002 9.62185 7.58696Z" fill="white"/>
<path d="M4.61572 9.41359C4.00984 8.81375 3.41074 8.21052 2.80825 7.6073C2.78455 7.58358 2.76763 7.55308 2.75747 7.53952C2.68639 7.5463 2.66609 7.58358 2.63901 7.61069C2.03652 8.21391 1.43741 8.81714 0.831533 9.41698C0.763838 9.48476 0.763838 9.51864 0.831533 9.58642C1.43741 10.1863 2.03652 10.7895 2.63901 11.3927C2.7067 11.4605 2.74055 11.4639 2.81163 11.3927C3.41074 10.7861 4.01323 10.1863 4.61572 9.58303C4.68342 9.51864 4.68342 9.48137 4.61572 9.41359Z" fill="white"/>
<path d="M18.1683 9.43732C18.1413 9.41699 18.1142 9.39665 18.0905 9.37293C17.5083 8.79004 16.9261 8.21053 16.3473 7.62425C16.2627 7.53953 16.2221 7.54292 16.1409 7.62764C15.5553 8.2207 14.9663 8.81037 14.374 9.39665C14.2928 9.47799 14.286 9.52204 14.3706 9.60676C14.682 9.90838 14.9833 10.2202 15.2913 10.5252C15.6095 10.8437 15.931 11.1555 16.2526 11.4707C16.327 11.4741 16.3575 11.4097 16.3981 11.369C16.9735 10.7963 17.5455 10.2235 18.1176 9.64743C18.148 9.61693 18.1853 9.58643 18.209 9.54915C18.2496 9.49154 18.2327 9.45087 18.1683 9.43732Z" fill="white"/>
</svg>
