<svg width="13" height="17" viewBox="0 0 13 17" fill="none" xmlns="http://www.w3.org/2000/svg">
<path d="M11.9049 7.1852C12.0695 6.62677 12.1132 6.06626 11.8945 5.50992C11.6944 4.99941 11.3256 4.62852 10.8818 4.32639C10.4109 4.0055 9.89412 3.78046 9.35861 3.59501C9.27943 3.56793 9.26276 3.53876 9.2836 3.45332C9.45863 2.77196 9.62324 2.08851 9.79827 1.40507C9.82119 1.31547 9.79619 1.29255 9.71701 1.27379C9.33986 1.1842 8.96272 1.08626 8.58765 0.992498C8.45221 0.959159 8.45221 0.959159 8.41887 1.09251C8.25635 1.74471 8.09382 2.3969 7.93338 3.05117C7.91462 3.13035 7.88754 3.15327 7.80211 3.13244C7.49997 3.05534 7.19575 2.98241 6.89154 2.91573C6.81444 2.89907 6.81027 2.87406 6.82694 2.8053C6.9978 2.13019 7.1645 1.45299 7.33536 0.777879C7.35203 0.709117 7.3437 0.682029 7.27285 0.663276C6.87487 0.567427 6.47897 0.469494 6.08307 0.36531C6.00181 0.344473 5.97888 0.369477 5.96013 0.442406C5.79552 1.11127 5.62674 1.78221 5.46005 2.45107C5.42463 2.59693 5.42463 2.59901 5.2746 2.56151C4.44321 2.35522 3.61182 2.15102 2.78252 1.94057C2.67834 1.91348 2.64708 1.93849 2.62416 2.0385C2.53873 2.41357 2.44288 2.78655 2.34911 3.15953C2.29494 3.37831 2.29494 3.37623 2.51372 3.42832C2.82628 3.50333 3.143 3.56584 3.44721 3.67628C3.84728 3.82005 3.99522 4.21595 3.89937 4.54309C3.80144 4.87856 3.72851 5.22237 3.64308 5.56201C3.23259 7.21437 2.82003 8.86464 2.40954 10.517C2.33036 10.8358 2.11574 10.9817 1.79277 10.9275C1.47397 10.8733 1.16558 10.7775 0.855115 10.6941C0.780102 10.6733 0.753014 10.692 0.725926 10.7587C0.527977 11.2234 0.32586 11.688 0.121659 12.1506C0.0904038 12.2194 0.0904039 12.2444 0.175835 12.2652C1.03431 12.4777 1.8907 12.6944 2.7471 12.9091C2.82419 12.9278 2.84295 12.957 2.82211 13.0383C2.645 13.7342 2.47413 14.4302 2.2991 15.1261C2.28244 15.1949 2.29077 15.224 2.36578 15.2407C2.76377 15.3366 3.15967 15.4345 3.55556 15.5366C3.63266 15.5574 3.6535 15.5408 3.67225 15.4657C3.84103 14.776 4.01606 14.0863 4.18484 13.3966C4.20359 13.3237 4.22651 13.305 4.30152 13.3258C4.59949 13.4071 4.89746 13.4862 5.1975 13.5592C5.27669 13.58 5.30169 13.6029 5.27877 13.6925C5.10374 14.3739 4.93913 15.0573 4.7641 15.7408C4.74326 15.82 4.7641 15.8387 4.83703 15.8575C5.22459 15.9512 5.61216 16.045 5.99764 16.1492C6.09765 16.1763 6.12474 16.1554 6.14766 16.0596C6.31644 15.3699 6.49147 14.6802 6.66025 13.9905C6.67692 13.9217 6.69984 13.9009 6.77277 13.9134C6.99364 13.9551 7.21659 13.9926 7.43954 14.0218C8.05423 14.103 8.66892 14.1384 9.28569 14.0322C10.0254 13.9051 10.6401 13.5675 11.0735 12.9403C11.4402 12.4111 11.6465 11.8193 11.7278 11.1838C11.8319 10.3586 11.5631 9.67519 10.9151 9.14594C10.7193 8.9855 10.5046 8.85422 10.2733 8.72712C10.3004 8.71462 10.315 8.70628 10.3317 8.70212C11.1464 8.49583 11.6694 7.98741 11.9049 7.1852ZM8.23134 11.9131C7.88962 12.0818 7.52081 12.111 7.16033 12.1152C6.59357 12.1027 6.05598 12.0068 5.52256 11.8776C5.26002 11.8151 4.99955 11.7443 4.73701 11.6797C4.67867 11.6651 4.65783 11.6443 4.6745 11.5797C4.91412 10.6254 5.15375 9.67103 5.39129 8.71462C5.40171 8.67503 5.39545 8.63127 5.46422 8.64794C6.16642 8.81463 6.87278 8.95841 7.53956 9.24179C7.90837 9.39806 8.25843 9.58768 8.5439 9.87939C9.15858 10.5024 9.00231 11.5297 8.23134 11.9131ZM9.28985 6.73095C9.15233 7.21645 8.80852 7.47274 8.33136 7.57693C8.148 7.61652 7.96046 7.62694 7.77293 7.62485C7.2666 7.62277 6.77485 7.5165 6.28727 7.39356C6.13516 7.35606 5.98722 7.3123 5.83511 7.27688C5.77677 7.26229 5.75593 7.24354 5.7726 7.17895C5.9893 6.3163 6.20392 5.45157 6.41854 4.58893C6.43104 4.54101 6.44563 4.51808 6.50189 4.53267C7.08949 4.66603 7.68125 4.78896 8.23551 5.03484C8.48764 5.14736 8.72518 5.28071 8.92938 5.46824C9.31069 5.81413 9.42738 6.23712 9.28985 6.73095Z" fill="#FEFEFE"/>
</svg>
