<svg width="24" height="22" viewBox="0 0 24 22" fill="none" xmlns="http://www.w3.org/2000/svg">
<path fillRule="evenodd" clipRule="evenodd" d="M2.47214 5.66732C1.10681 5.66732 0 6.77413 0 8.13945V15.6673C0 18.4957 0 19.91 0.87868 20.7886C1.75736 21.6673 3.17157 21.6673 6 21.6673H18C20.8284 21.6673 22.2426 21.6673 23.1213 20.7886C24 19.91 24 18.4957 24 15.6673V8.13945C24 6.77413 22.8932 5.66732 21.5279 5.66732C20.5915 5.66732 19.7355 5.13827 19.3167 4.30075L18.2222 2.11176C17.8968 1.46101 17.7342 1.13564 17.4904 0.898953C17.2819 0.696632 17.032 0.542135 16.7578 0.446206C16.4371 0.333984 16.0733 0.333984 15.3457 0.333984H8.65428C7.92672 0.333984 7.56294 0.333984 7.24221 0.446206C6.96804 0.542135 6.71806 0.696632 6.50965 0.898953C6.26584 1.13564 6.10315 1.46101 5.77778 2.11176L4.68328 4.30075C4.26452 5.13827 3.40851 5.66732 2.47214 5.66732ZM15.3333 12.334C15.3333 14.1749 13.841 15.6673 12 15.6673C10.1591 15.6673 8.66667 14.1749 8.66667 12.334C8.66667 10.493 10.1591 9.00065 12 9.00065C13.841 9.00065 15.3333 10.493 15.3333 12.334ZM17.3333 12.334C17.3333 15.2795 14.9455 17.6673 12 17.6673C9.05448 17.6673 6.66667 15.2795 6.66667 12.334C6.66667 9.38847 9.05448 7.00065 12 7.00065C14.9455 7.00065 17.3333 9.38847 17.3333 12.334Z" fill="#CACBCD"/>
</svg>
