<svg width="20" height="20" viewBox="0 0 20 20" fill="none" xmlns="http://www.w3.org/2000/svg">
<path d="M4.42363 4.44285C5.84412 3.01747 7.80707 2.13684 9.97724 2.13684C14.3074 2.13684 17.8177 5.64712 17.8177 9.97727C17.8177 14.3074 14.3074 17.8177 9.97724 17.8177C5.64709 17.8177 2.13681 14.3074 2.13681 9.97727C2.13681 9.52933 1.77367 9.16619 1.32573 9.16619C0.877781 9.16619 0.514648 9.52933 0.514648 9.97727C0.514648 15.2033 4.7512 19.4399 9.97724 19.4399C15.2033 19.4399 19.4398 15.2033 19.4398 9.97727C19.4398 4.75123 15.2033 0.514679 9.97724 0.514679C7.35855 0.514679 4.98702 1.57949 3.27462 3.29778C3.2471 3.3254 3.22198 3.3545 3.19926 3.38483L1.83928 2.02485C1.69092 1.87649 1.47014 1.82735 1.27286 1.89877C1.07558 1.9702 0.937429 2.1493 0.918434 2.35824L0.536087 6.56405C0.521558 6.72387 0.578767 6.88188 0.692239 6.99536C0.805712 7.10883 0.963725 7.16604 1.12354 7.15151L5.32935 6.76916C5.5383 6.75017 5.7174 6.61201 5.78882 6.41474C5.86025 6.21746 5.8111 5.99667 5.66274 5.84832L4.33461 4.52018C4.36567 4.49692 4.39543 4.47114 4.42363 4.44285Z" fill="#A7A7A7"/>
<path d="M10.7883 4.57008C10.7883 4.12213 10.4252 3.759 9.97724 3.759C9.5293 3.759 9.16616 4.12213 9.16616 4.57008V9.97727C9.16616 10.2569 9.31023 10.5169 9.54737 10.6651L12.7917 12.6928C13.1715 12.9302 13.6719 12.8147 13.9094 12.4348C14.1468 12.055 14.0313 11.5546 13.6514 11.3172L10.7883 9.52773V4.57008Z" fill="#A7A7A7"/>
</svg>
