<svg width="15" height="16" viewBox="0 0 15 16" fill="none" xmlns="http://www.w3.org/2000/svg">
<path d="M14.9949 3.15979C14.9949 2.5392 14.9995 1.91861 14.9949 1.29802C14.9902 0.701123 14.6009 0.203705 14.038 0.0426358C13.9958 0.0284239 13.9536 0.0142119 13.9067 0C10.7125 0 7.51361 0 4.31943 0C4.26783 0.0236866 4.21155 0.0426358 4.15995 0.0663224C3.81755 0.222654 3.62993 0.487944 3.61586 0.866929C3.5971 1.38803 4.00048 1.77176 4.55395 1.77176C7.3729 1.77176 10.1965 1.77176 13.0155 1.77176C13.0858 1.77176 13.1515 1.77176 13.2359 1.77176C13.2359 1.8665 13.2359 1.9423 13.2359 2.0181C13.2359 3.99356 13.2359 8.33768 13.2359 10.3131H14.9902C14.9949 8.71666 14.9949 4.75627 14.9949 3.15979Z" fill="white"/>
<path d="M13.2402 12.4686C13.2402 12.5397 13.2402 12.6107 13.2402 12.6818C13.2684 13.2361 13.7937 13.6245 14.3284 13.4919C14.7506 13.3829 14.9945 13.0418 14.9945 12.5491C14.9945 11.6348 14.9945 10.7158 14.9945 9.80151H13.2402C13.2402 10.6921 13.2402 11.5827 13.2402 12.4686Z" fill="white"/>
<path d="M1.76829 4.98366C4.52627 4.98366 7.27017 4.98366 10.0328 4.98366C10.0328 5.96902 10.0328 9.32778 10.0328 10.3131H11.8011C11.8011 9.18566 11.8011 5.68952 11.8011 4.56204C11.8011 3.77091 11.2477 3.20717 10.4644 3.20717C7.42026 3.20243 4.37617 3.20243 1.33677 3.20717C0.553471 3.20243 0 3.77564 0 4.56204C0 5.68952 0 9.18566 0 10.3131H1.76829C1.76829 9.32778 1.76829 5.96902 1.76829 4.98366Z" fill="white"/>
<path d="M10.0328 14.0035C7.28424 14.0035 4.53096 14.0035 1.76829 14.0035C1.76829 12.606 1.76829 11.2038 1.76829 9.80151H0C0 11.3411 0 12.8855 0 14.4251C0 15.2257 0.558161 15.7895 1.34615 15.7895C4.38555 15.7895 7.42026 15.7895 10.4597 15.7895C10.5394 15.7895 10.6238 15.7895 10.7036 15.7753C11.3649 15.6616 11.8011 15.1357 11.8011 14.4441C11.8011 12.8997 11.8011 11.3506 11.8011 9.80624H10.0328C10.0328 11.2038 10.0328 12.6013 10.0328 14.0035Z" fill="white"/>
</svg>
