<svg width="16" height="13" viewBox="0 0 16 13" fill="none" xmlns="http://www.w3.org/2000/svg">
<path d="M8.94671 12.9992C8.84367 12.9992 8.74063 13 8.63836 13C6.77295 13 4.90754 13 3.04213 13C2.99405 13 2.99634 13 3.00473 12.9512C3.02153 12.8527 3.03526 12.7526 3.05129 12.6541C3.06732 12.5604 3.08488 12.4668 3.10167 12.3731C3.11617 12.2898 3.12991 12.2058 3.14365 12.1217C3.15433 12.0584 3.16349 11.9952 3.17418 11.9319C3.18868 11.8455 3.20471 11.7598 3.21921 11.6741C3.23371 11.5909 3.24974 11.5076 3.26348 11.4243C3.27722 11.3403 3.28867 11.2562 3.30241 11.1721C3.31614 11.0897 3.3337 11.008 3.3482 10.9255C3.36423 10.8319 3.37949 10.7382 3.39476 10.6445C3.40926 10.5596 3.42376 10.4748 3.43979 10.3907C3.44284 10.3755 3.44513 10.3587 3.44513 10.3451C3.44513 10.2954 3.47185 10.2954 3.50696 10.2954C4.51294 10.2962 5.51891 10.297 6.52413 10.2978C6.7989 10.2978 7.07367 10.2986 7.34845 10.2986C7.36219 10.2986 7.37592 10.297 7.39043 10.2962C7.40035 10.3018 7.41027 10.2994 7.42019 10.2994C7.74534 10.2994 8.07049 10.2994 8.3964 10.2994C8.40633 10.2994 8.41701 10.301 8.42617 10.2962C8.49639 10.301 8.56661 10.2962 8.63683 10.2938C8.67041 10.2866 8.70476 10.2962 8.73911 10.2882C8.76582 10.2874 8.7933 10.2866 8.82001 10.2858C8.84291 10.2786 8.86733 10.2882 8.89099 10.2802C8.91084 10.2794 8.93068 10.2786 8.94977 10.2778C8.96808 10.2714 8.98717 10.2802 9.00472 10.2722C9.01922 10.2714 9.03372 10.2706 9.04899 10.2698C9.06502 10.2634 9.08181 10.2714 9.09708 10.2642C9.11158 10.2634 9.12608 10.2626 9.14058 10.2618C9.15356 10.2562 9.16806 10.2634 9.18103 10.2562C9.23675 10.2562 9.29171 10.2474 9.34666 10.2386C9.35964 10.2322 9.37414 10.2402 9.38635 10.2322C9.481 10.2266 9.57488 10.2074 9.66799 10.1906C9.89545 10.1489 10.1191 10.0929 10.3389 10.0168C10.4793 9.96877 10.6167 9.91193 10.7518 9.84788C10.9678 9.7454 11.1709 9.61889 11.3586 9.46837C11.4563 9.38991 11.5479 9.30424 11.6357 9.21297C11.8196 9.02162 11.9723 8.80624 12.0997 8.57166C12.1929 8.40112 12.2722 8.22258 12.3402 8.03843C12.3783 7.93515 12.4157 7.83187 12.447 7.72698C12.4905 7.57966 12.5287 7.43074 12.5676 7.28183C12.5928 7.18415 12.6149 7.08487 12.6378 6.98559C12.6707 6.84307 12.7004 6.70056 12.7302 6.55725C12.76 6.41473 12.7859 6.27222 12.8111 6.1289C12.8271 6.03683 12.8393 5.94315 12.8516 5.84948C12.8615 5.77422 12.8691 5.69816 12.8806 5.6229C12.8874 5.60929 12.8806 5.59408 12.8859 5.58046C12.8867 5.56845 12.8874 5.55564 12.8882 5.54364C12.8943 5.53002 12.8882 5.51481 12.8935 5.5004C12.8943 5.48519 12.8951 5.46998 12.8958 5.45476C12.9035 5.43555 12.8951 5.41553 12.9012 5.39632C12.9019 5.3755 12.9027 5.35548 12.9035 5.33467C12.9118 5.29944 12.9019 5.26341 12.9088 5.22818C12.9088 5.17214 12.9088 5.11609 12.9088 5.05925C12.9012 5.02162 12.9118 4.98239 12.9035 4.94396C12.9027 4.92074 12.9019 4.89752 12.9012 4.8751C12.8951 4.85829 12.9027 4.84067 12.8958 4.82386C12.8951 4.80865 12.8943 4.79424 12.8935 4.77902C12.8874 4.76541 12.8943 4.7502 12.8882 4.73659C12.8683 4.54524 12.8332 4.35709 12.7722 4.17454C12.7042 3.97118 12.6088 3.78383 12.4783 3.61569C12.3249 3.41793 12.1364 3.26741 11.925 3.14492C11.8128 3.08006 11.696 3.02402 11.5754 2.97918C11.441 2.92874 11.3044 2.88551 11.164 2.85588C11.0831 2.83907 11.0022 2.81906 10.9205 2.80384C10.8617 2.79263 10.8014 2.78463 10.7419 2.77662C10.6847 2.76862 10.6266 2.76061 10.5694 2.7534C10.5564 2.747 10.5419 2.7534 10.5282 2.7478C10.516 2.747 10.5045 2.7462 10.4923 2.7454C10.4793 2.73899 10.4648 2.7454 10.4519 2.73979C10.4374 2.73899 10.4221 2.73819 10.4076 2.73739C10.39 2.72938 10.3702 2.73819 10.3526 2.73179C10.3358 2.73098 10.3183 2.73018 10.3015 2.72938C10.2809 2.72138 10.2588 2.73018 10.2381 2.72378C10.2137 2.72298 10.1893 2.72218 10.1641 2.72138C10.1359 2.71257 10.1061 2.72298 10.0779 2.71577C10.0328 2.71497 9.9878 2.71417 9.94277 2.71337C9.92827 2.70697 9.91224 2.71017 9.89773 2.71017C9.49092 2.71017 9.0841 2.71017 8.67728 2.71017C8.66354 2.71017 8.64904 2.71257 8.6353 2.70777C8.4857 2.70697 8.33534 2.70616 8.18574 2.70616C7.20343 2.70536 6.22035 2.70456 5.23803 2.70296C5.22429 2.70296 5.21056 2.70456 5.19605 2.70536C5.15713 2.69816 5.1182 2.70216 5.07927 2.70216C4.96937 2.70136 4.85946 2.70216 4.74878 2.70216C4.73123 2.70216 4.70909 2.70697 4.71902 2.67494C4.74268 2.53643 4.76863 2.39872 4.79 2.26021C4.81366 2.11049 4.84037 1.96077 4.86633 1.81185C4.89075 1.67014 4.90907 1.52682 4.93502 1.38511C4.96479 1.22338 4.99226 1.06165 5.01821 0.899119C5.03882 0.771017 5.06554 0.644516 5.08691 0.516413C5.11133 0.3747 5.13194 0.231385 5.15636 0.0896717C5.15942 0.0728583 5.16171 0.0568455 5.164 0.040032C5.16705 0.0168134 5.17468 0 5.20827 0C7.1126 0.00160128 9.0177 0.00160128 10.922 0.00240192C10.9579 0.00240192 10.993 0.00240192 11.0289 0.00240192C11.0754 0.011209 11.122 0.00080064 11.1686 0.0080064C11.2006 0.00880705 11.2334 0.00960769 11.2655 0.0104083C11.2937 0.0192154 11.3235 0.00880705 11.3517 0.0160128C11.3739 0.0168135 11.396 0.0176141 11.4182 0.0184147C11.4388 0.0264211 11.4609 0.0176141 11.4815 0.0240192C11.5013 0.0248199 11.5212 0.0256205 11.541 0.0256205C11.5586 0.0336269 11.5784 0.0248199 11.596 0.031225C11.6105 0.0320256 11.625 0.0328263 11.6403 0.0336269C11.6555 0.0416333 11.6723 0.0328263 11.6876 0.0392314C11.7021 0.040032 11.7166 0.0408327 11.7318 0.0416333C11.7471 0.0496397 11.7639 0.0416333 11.7792 0.0472378C11.7914 0.0480384 11.8036 0.0488391 11.8158 0.0496397C11.828 0.0576461 11.8425 0.0496397 11.8555 0.0552442C11.8677 0.0560448 11.8799 0.0568455 11.8921 0.0576461C11.9043 0.0648519 11.9188 0.0576461 11.9318 0.0640512C12.1814 0.0968775 12.431 0.132906 12.6775 0.186549C13.0393 0.265012 13.3927 0.372298 13.7339 0.522818C13.998 0.638911 14.2498 0.780624 14.4849 0.953563C14.6612 1.08327 14.8261 1.22818 14.9757 1.39151C15.2345 1.67494 15.4413 1.996 15.5955 2.35228C15.7184 2.63651 15.8092 2.93115 15.871 3.23619C15.9054 3.40272 15.9275 3.57166 15.9542 3.73899C15.9603 3.7526 15.9527 3.76781 15.9603 3.78062C15.9611 3.79103 15.9618 3.80064 15.9626 3.81105C15.9687 3.82466 15.9611 3.83987 15.9687 3.85268C15.9695 3.86549 15.9702 3.8783 15.971 3.89111C15.9763 3.90472 15.9702 3.91994 15.9763 3.93435C15.9771 3.94956 15.9779 3.96477 15.9786 3.97918C15.9847 3.9952 15.9771 4.01361 15.984 4.02962C15.9847 4.04724 15.9855 4.06565 15.9863 4.08327C15.9931 4.10488 15.984 4.1281 15.9916 4.14972C15.9924 4.17534 15.9931 4.20096 15.9939 4.22658C15.9985 4.24019 15.9954 4.2546 15.9962 4.26821C15.9962 4.29384 15.9962 4.31946 15.9962 4.34588C15.9985 4.3779 15.9916 4.41073 16 4.44275C16 4.53323 16 4.6245 16 4.71497C15.9908 4.747 15.9985 4.77902 15.9962 4.81105C15.9962 4.82946 15.9962 4.84868 15.9962 4.86709C15.9962 4.89031 15.9962 4.91433 15.9962 4.93755C15.9954 4.95116 15.9985 4.96557 15.9939 4.97918C15.9931 5.0024 15.9924 5.02562 15.9916 5.04884C15.9832 5.07606 15.9931 5.10408 15.9863 5.13131C15.9855 5.14972 15.9847 5.16733 15.984 5.18575C15.9756 5.20737 15.9847 5.22978 15.9779 5.2514C15.9771 5.26902 15.9763 5.28743 15.9756 5.30504C15.9687 5.32106 15.9763 5.33947 15.9702 5.35548C15.9695 5.3707 15.9687 5.38591 15.9679 5.40112C15.9611 5.41713 15.9687 5.43555 15.9626 5.45156C15.9618 5.46437 15.9611 5.47718 15.9611 5.48999C15.9534 5.506 15.9618 5.52362 15.955 5.53963C15.9542 5.55004 15.9542 5.55965 15.9534 5.57006C15.9458 5.58607 15.9542 5.60368 15.9473 5.6197C15.9466 5.6301 15.9466 5.63971 15.9458 5.65012C15.9382 5.66293 15.9458 5.67814 15.9397 5.69175C15.9389 5.70136 15.9382 5.71177 15.9374 5.72138C15.9305 5.73499 15.9374 5.7502 15.9313 5.76381C15.913 5.90392 15.8962 6.04484 15.8764 6.18415C15.8573 6.31866 15.8374 6.45316 15.8138 6.58687C15.7863 6.7462 15.7573 6.90552 15.7245 7.06405C15.681 7.27382 15.6336 7.48199 15.5802 7.68935C15.5161 7.93835 15.4428 8.18415 15.3604 8.42754C15.2635 8.71337 15.1535 8.99359 15.0299 9.26821C14.862 9.64211 14.6666 10 14.4414 10.3395C14.3162 10.5276 14.1827 10.7094 14.0384 10.8823C13.9262 11.0168 13.811 11.1473 13.6881 11.2714C13.4828 11.4772 13.2652 11.6669 13.0324 11.8383C12.8661 11.9608 12.6928 12.0737 12.5142 12.1753C12.3592 12.2634 12.2005 12.3427 12.0394 12.4163C11.8608 12.498 11.6799 12.5717 11.4945 12.6357C11.2884 12.707 11.0785 12.7638 10.8655 12.8102C10.7221 12.8415 10.5786 12.8687 10.4335 12.8887C10.3496 12.9007 10.2656 12.9119 10.1824 12.9231C10.1695 12.9295 10.155 12.9215 10.142 12.9295C10.1298 12.9303 10.1176 12.9311 10.1061 12.9319C10.0931 12.9375 10.0786 12.9303 10.0664 12.9375C10.0542 12.9383 10.042 12.9392 10.0298 12.94C10.0168 12.9456 10.0023 12.9383 9.98933 12.9456C9.97711 12.9464 9.9649 12.9472 9.95345 12.948C9.93819 12.9544 9.92063 12.9464 9.90537 12.9536C9.88858 12.9544 9.87178 12.9552 9.85423 12.956C9.83896 12.9624 9.82141 12.9544 9.80614 12.9616C9.78935 12.9624 9.7718 12.9632 9.75501 12.964C9.73669 12.9704 9.71684 12.9616 9.69929 12.9696C9.67944 12.9704 9.66036 12.9712 9.64052 12.972C9.61991 12.9784 9.59701 12.9696 9.5764 12.9776C9.55198 12.9784 9.52755 12.9792 9.50313 12.98C9.47718 12.9872 9.45046 12.9768 9.42451 12.9856C9.39475 12.9864 9.36498 12.9872 9.33521 12.988C9.30392 12.9952 9.27186 12.9848 9.24133 12.9936C9.1963 12.9944 9.15127 12.9952 9.107 12.996C9.0551 13.0008 9.0009 12.9896 8.94671 12.9992Z" fill="white"/>
<path d="M8 5.01629C7.97868 5.12446 7.95736 5.23263 7.93525 5.3408C7.85707 5.73091 7.77811 6.12014 7.68888 6.50671C7.62649 6.77801 7.53805 7.03779 7.39275 7.27009C7.27194 7.46337 7.12032 7.61587 6.9387 7.73468C6.7863 7.83398 6.62126 7.89693 6.4507 7.9386C6.35041 7.96343 6.24696 7.98471 6.14273 7.98737C6.12615 7.99446 6.10878 7.98559 6.09219 7.99357C6.06455 7.99446 6.03613 7.99535 6.00849 7.99623C5.99428 8.00155 5.98006 7.99889 5.96506 7.99889C3.9925 7.99889 2.01915 7.99889 0.0465897 7.99889C0.0307966 7.99889 0.0150035 8.00332 0 7.99446C0 7.98293 0 7.97052 0 7.95899C0.0244793 7.90934 0.0268483 7.8526 0.0371138 7.7994C0.0994966 7.4811 0.167407 7.16458 0.232159 6.84628C0.259797 6.70974 0.286645 6.5732 0.319811 6.43844C0.361662 6.26909 0.415359 6.10329 0.488007 5.94636C0.548021 5.81691 0.61909 5.69722 0.704373 5.58639C0.914421 5.31243 1.18527 5.16347 1.49087 5.07925C1.5801 5.05442 1.67012 5.04023 1.76093 5.02339C1.77436 5.01629 1.78936 5.02516 1.80278 5.01629C1.81542 5.01541 1.82805 5.01452 1.8399 5.01363C1.85648 5.00654 1.87385 5.01541 1.89044 5.00743C1.91334 5.00654 1.93624 5.00566 1.95835 5.00477C1.97256 4.99945 1.98677 5.00211 2.00178 5.00211C3.98618 5.00211 5.97059 5.00211 7.95499 5.003C7.96999 5.00388 7.99052 4.9897 8 5.01629Z" fill="white"/>
</svg>
