<svg width="80" height="80" viewBox="0 0 80 80" fill="none" xmlns="http://www.w3.org/2000/svg">
<path fillRule="evenodd" clipRule="evenodd" d="M22.1287 26.2947C21.25 27.1734 21.25 28.5876 21.25 31.416V48.5827C21.25 51.4111 21.25 52.8253 22.1287 53.704C23.0074 54.5827 24.4216 54.5827 27.25 54.5827H52.75C55.5784 54.5827 56.9926 54.5827 57.8713 53.704C58.75 52.8253 58.75 51.4111 58.75 48.5827V31.416C58.75 28.5876 58.75 27.1734 57.8713 26.2947C56.9926 25.416 55.5784 25.416 52.75 25.416H27.25C24.4216 25.416 23.0074 25.416 22.1287 26.2947ZM28.0547 32.9173C27.5952 32.6109 26.9743 32.7351 26.6679 33.1946C26.3616 33.6542 26.4858 34.275 26.9453 34.5814L38.8906 42.5449C39.5624 42.9928 40.4376 42.9928 41.1094 42.5449L53.0547 34.5814C53.5142 34.275 53.6384 33.6542 53.3321 33.1946C53.0257 32.7351 52.4048 32.6109 51.9453 32.9173L40 40.8808L28.0547 32.9173Z" fill="#202E52"/>
<circle cx="40" cy="40" r="38.5" stroke="#202E52" strokeWidth="3"/>
</svg>
