<svg width="45" height="45" viewBox="0 0 45 45" fill="none" xmlns="http://www.w3.org/2000/svg">
<path d="M24.6967 5.625H16.875C13.3395 5.625 11.5717 5.625 10.4733 6.72335C9.375 7.8217 9.375 9.58947 9.375 13.125V31.875C9.375 35.4105 9.375 37.1783 10.4733 38.2766C11.5717 39.375 13.3395 39.375 16.875 39.375H28.125C31.6605 39.375 33.4283 39.375 34.5266 38.2766C35.625 37.1783 35.625 35.4105 35.625 31.875V16.5533C35.625 15.7869 35.625 15.4037 35.4823 15.0591C35.3395 14.7145 35.0686 14.4436 34.5267 13.9017L27.3484 6.72335C26.8064 6.18142 26.5355 5.91045 26.1909 5.76773C25.8463 5.625 25.4631 5.625 24.6967 5.625Z" stroke="#0C1937" strokeWidth="2"/>
<path d="M16.875 24.375L28.125 24.375" stroke="#0C1937" strokeWidth="2" strokeLinecap="round"/>
<path d="M16.875 31.875L24.375 31.875" stroke="#0C1937" strokeWidth="2" strokeLinecap="round"/>
<path d="M24.375 5.625V13.125C24.375 14.8928 24.375 15.7767 24.9242 16.3258C25.4733 16.875 26.3572 16.875 28.125 16.875H35.625" stroke="#0C1937" strokeWidth="2"/>
</svg>
