<svg width="21" height="15" viewBox="0 0 21 15" fill="none" xmlns="http://www.w3.org/2000/svg">
<path d="M16.1988 0.951676C15.8106 1.2966 15.8106 1.85583 16.1988 2.20076L17.1528 3.04828H12.0988C11.2095 3.04828 10.3986 3.49982 10.0109 4.21076L5.59847 12.3034C5.54309 12.405 5.42724 12.4695 5.30021 12.4695H0.994226C0.445131 12.4695 0 12.8649 0 13.3527C0 13.8405 0.445131 14.2359 0.994226 14.2359H5.30021C6.18943 14.2359 7.00041 13.7844 7.38804 13.0734L11.8005 4.98082C11.8559 4.87925 11.9717 4.81475 12.0988 4.81475H17.1528L16.1988 5.66227C15.8106 6.00719 15.8106 6.56643 16.1988 6.91135C16.5871 7.25628 17.2166 7.25628 17.6049 6.91135L20.2561 4.55606C20.6444 4.21113 20.6444 3.6519 20.2561 3.30697L17.6049 0.951676C17.2166 0.60675 16.5871 0.60675 16.1988 0.951676Z" fill="#FECD0B"/>
</svg>
