<svg width="24" height="24" viewBox="0 0 24 24" fill="none" xmlns="http://www.w3.org/2000/svg">
<path fillRule="evenodd" clipRule="evenodd" d="M15.9202 12.7988C15.9725 12.5407 16 12.2736 16 12C16 9.79086 14.2091 8 12 8C11.7264 8 11.4593 8.02746 11.2012 8.07977L15.9202 12.7988ZM8.66676 9.78799C8.24547 10.4216 8 11.1821 8 12C8 14.2091 9.79086 16 12 16C12.8179 16 13.5784 15.7545 14.212 15.3332L12.7381 13.8594C12.5098 13.9501 12.2607 14 12 14C10.8954 14 10 13.1046 10 12C10 11.7393 10.0499 11.4902 10.1406 11.2619L8.66676 9.78799Z" fill="#A7A7A7"/>
<path fillRule="evenodd" clipRule="evenodd" d="M16.5199 17.6405L15.0506 16.1712C14.0784 16.6805 13.0485 17 12.0007 17C10.4749 17 8.98689 16.3224 7.65988 15.3677C6.34075 14.4186 5.26482 13.2558 4.5846 12.43C4.48483 12.3088 4.41031 12.2182 4.34858 12.1385C4.29972 12.0754 4.26859 12.0315 4.24829 12C4.26859 11.9685 4.29972 11.9246 4.34858 11.8615C4.41031 11.7818 4.48483 11.6912 4.5846 11.57C5.25001 10.7622 6.29408 9.63187 7.57404 8.69463L6.14532 7.2659C4.79716 8.29616 3.7232 9.47005 3.04083 10.2985C3.01724 10.3272 2.99266 10.3566 2.96735 10.3869L2.96734 10.3869C2.65391 10.7624 2.23047 11.2696 2.23047 12C2.23047 12.7304 2.65391 13.2376 2.96734 13.6131L2.96756 13.6133C2.99279 13.6435 3.0173 13.6729 3.04083 13.7015C3.78069 14.5998 4.98091 15.9041 6.49185 16.9912C7.99489 18.0725 9.89081 19 12.0007 19C13.6708 19 15.2067 18.419 16.5199 17.6405ZM8.80756 5.6855C9.79135 5.26871 10.865 5 12.0007 5C14.1107 5 16.0066 5.92747 17.5096 7.00885C19.0206 8.0959 20.2208 9.40025 20.9607 10.2985C20.9842 10.3272 21.0088 10.3566 21.0341 10.3869L21.0341 10.3869C21.3476 10.7624 21.771 11.2696 21.771 12C21.771 12.7304 21.3476 13.2376 21.0341 13.6131C21.0088 13.6434 20.9843 13.6728 20.9607 13.7015C20.474 14.2923 19.7882 15.0589 18.9458 15.8237L17.5297 14.4077C18.3096 13.708 18.9546 12.9912 19.4169 12.43C19.5167 12.3088 19.5912 12.2182 19.6529 12.1385C19.7018 12.0754 19.7329 12.0315 19.7532 12C19.7329 11.9685 19.7018 11.9246 19.6529 11.8615C19.5912 11.7818 19.5167 11.6912 19.4169 11.57C18.7367 10.7442 17.6607 9.58138 16.3416 8.63233C15.0146 7.6776 13.5265 7 12.0007 7C11.4497 7 10.9037 7.08837 10.3683 7.24624L8.80756 5.6855Z" fill="#A7A7A7"/>
<path d="M5 2L21 18" stroke="#A7A7A7" strokeWidth="2"/>
</svg>
