<svg width="16" height="23" viewBox="0 0 16 23" fill="none" xmlns="http://www.w3.org/2000/svg">
<path fillRule="evenodd" clipRule="evenodd" d="M6.3622 0.630826C6.55872 0.404707 6.86388 0.30533 7.15587 0.372365C11.0586 1.26835 13.0313 5.54503 12.5674 9.3713C12.387 10.8587 11.9415 12.0248 11.2855 12.9525C11.2815 12.9582 11.2774 12.9638 11.2734 12.9695C11.4224 12.8962 11.5599 12.8172 11.6886 12.7337C12.3287 12.3182 12.7985 11.7699 13.4102 11.056C13.4842 10.9697 13.5602 10.881 13.6388 10.7898C13.8155 10.5849 14.0828 10.4816 14.3514 10.5144C14.62 10.5472 14.8546 10.7118 14.9768 10.9533C15.5148 12.0165 15.8176 13.2186 15.8176 14.489C15.8176 18.8192 12.3073 22.3295 7.97716 22.3295C3.647 22.3295 0.136719 18.8192 0.136719 14.489C0.136719 11.7454 1.5466 9.33151 3.67769 7.93164L3.75075 7.85803C3.78828 7.8202 3.82945 7.78617 3.87366 7.75643C4.81003 7.12634 5.4824 6.61099 5.93508 6.00492C6.36271 5.43239 6.62536 4.73398 6.62536 3.67465C6.62536 2.89031 6.48053 2.14169 6.21688 1.45277C6.10981 1.17298 6.16568 0.856945 6.3622 0.630826ZM8.16232 2.51553C8.21845 2.89401 8.24751 3.28109 8.24751 3.67465C8.24751 5.04637 7.89312 6.09416 7.23473 6.97565C6.61642 7.80348 5.7605 8.43929 4.84602 9.05725L4.76783 9.13604C4.72594 9.17825 4.67953 9.21573 4.62944 9.2478C2.90139 10.3541 1.75888 12.2884 1.75888 14.489C1.75888 17.9233 4.5429 20.7073 7.97716 20.7073C11.4114 20.7073 14.1954 17.9233 14.1954 14.489C14.1954 13.9269 14.121 13.3828 13.9816 12.8658C13.5705 13.3111 13.1166 13.7407 12.5717 14.0944C11.5732 14.7424 10.3238 15.1124 8.51787 15.1124C8.14775 15.1124 7.82457 14.8618 7.73237 14.5033C7.64016 14.1449 7.80232 13.7695 8.12651 13.5909C8.8606 13.1864 9.48287 12.692 9.96101 12.0159C10.4382 11.3412 10.8037 10.4403 10.957 9.17605C11.2889 6.4392 10.1562 3.73784 8.16232 2.51553Z" fill="#A7A7A7"/>
</svg>
