<svg width="80" height="81" viewBox="0 0 80 81" fill="none" xmlns="http://www.w3.org/2000/svg">
<path d="M46.6552 78.0843C51.6127 77.2102 56.3495 75.3681 60.5952 72.6633C64.8408 69.9586 68.5121 66.444 71.3995 62.3204C74.2869 58.1968 76.3338 53.5449 77.4234 48.6302C78.5129 43.7155 78.6238 38.6343 77.7497 33.6768C76.8755 28.7193 75.0335 23.9825 72.3287 19.7368C69.6239 15.4912 66.1094 11.8199 61.9858 8.9325C57.8622 6.04512 53.2102 3.99821 48.2955 2.90865C43.3809 1.81909 38.2997 1.70822 33.3422 2.58237C28.3846 3.45652 23.6478 5.29856 19.4022 8.00333C15.1566 10.7081 11.4852 14.2226 8.59786 18.3462C5.71047 22.4699 3.66357 27.1218 2.57401 32.0365C1.48445 36.9512 1.37358 42.0323 2.24773 46.9899C3.12188 51.9474 4.96392 56.6842 7.66869 60.9298C10.3735 65.1755 13.888 68.8468 18.0116 71.7342C22.1352 74.6216 26.7872 76.6685 31.7019 77.758C36.6165 78.8476 41.6977 78.9584 46.6552 78.0843L46.6552 78.0843Z" stroke="#FECD0B" strokeWidth="3.13636"/>
<path d="M50.9006 22C51.3815 22.1431 51.8816 22.2099 52.3337 22.4484C53.9881 23.2975 54.8922 24.6331 54.9499 26.4743C54.9884 27.6287 55.0654 28.7926 54.8537 29.9278C54.5556 31.521 53.7188 32.8471 52.7088 34.0778C51.1795 35.9477 49.352 37.5218 47.4956 39.0673C47.0339 39.4489 46.5722 39.84 46.1202 40.2216C45.2064 41.0135 45.1968 41.9675 46.1106 42.7498C47.6687 44.0854 49.2847 45.3542 50.7563 46.7852C51.2083 47.2241 51.6412 47.6629 52.0644 48.1304C52.6607 48.7887 52.6319 49.7045 52.0163 50.2865C51.4007 50.8684 50.4581 50.8779 49.8521 50.2197C48.0823 48.3212 46.0528 46.7089 44.0811 45.0394C41.7919 43.1027 41.8015 39.8877 44.0907 37.9415C45.8797 36.4247 47.7265 34.9746 49.3424 33.2669C50.2465 32.3129 51.1218 31.3302 51.6219 30.0996C51.7855 29.6989 51.8816 29.2791 51.8816 28.8403C51.8816 28.1152 51.8913 27.3902 51.8816 26.6747C51.872 25.692 51.2372 25.0528 50.2465 25.0528C43.3982 25.0528 36.5594 25.0528 29.7111 25.0528C28.7492 25.0528 28.1048 25.6825 28.0952 26.6365C28.0855 27.3711 28.0952 28.1057 28.0952 28.8403C28.0952 29.6798 28.4414 30.4239 28.8935 31.1013C30.0189 32.809 31.5097 34.1827 33.0391 35.5088C33.9817 36.3293 34.9435 37.1211 35.8957 37.932C38.1849 39.8782 38.1849 43.0837 35.8861 45.0298C34.0971 46.5467 32.2503 48.0064 30.6344 49.7045C29.7303 50.6585 28.855 51.6411 28.3549 52.8718C28.1914 53.2725 28.0952 53.6923 28.0952 54.1311C28.0952 54.8562 28.0855 55.5812 28.0952 56.2967C28.1048 57.2794 28.7396 57.9185 29.7303 57.9185C36.5787 57.9185 43.4174 57.9185 50.2657 57.9185C51.2083 57.9185 51.8239 57.3366 51.8913 56.4017C51.9586 55.4667 52.6319 54.8371 53.5072 54.8752C54.3824 54.9229 54.9788 55.6194 54.9595 56.5543C54.9018 58.8916 52.9301 60.8855 50.5639 60.9428C49.2173 60.9809 47.8804 60.9523 46.5338 60.9523C40.9454 60.9523 35.3475 60.9523 29.7592 60.9523C27.47 60.9523 25.6809 59.569 25.1423 57.4034C25.1038 57.2603 25.0654 57.1076 25.0654 56.955C25.0076 55.6385 24.9115 54.3124 25.1327 53.0054C25.4116 51.4122 26.2677 50.0861 27.2776 48.8554C28.8069 46.9951 30.6248 45.4305 32.462 43.8946C32.9429 43.4939 33.4238 43.0932 33.8951 42.683C34.7704 41.9293 34.7704 40.9658 33.8855 40.2121C32.26 38.8192 30.5767 37.4836 29.057 35.9763C27.8451 34.7742 26.7005 33.5149 25.8925 31.9885C25.325 30.9677 24.9884 29.8515 25.0269 28.6399C25.0557 27.7432 24.9499 26.8368 25.0846 25.9401C25.3924 23.9366 26.7582 22.5247 28.7492 22.0859C28.8166 22.0668 28.9031 22.0954 28.9416 22C36.2612 22 43.5809 22 50.9006 22Z" fill="#FECD0B"/>
<path d="M39.9734 54.6654C37.9439 54.6654 35.9048 54.6654 33.8753 54.6654C33.0962 54.6654 32.6249 54.3219 32.4422 53.6541C32.3171 53.158 32.4806 52.7478 32.8269 52.4139C34.6159 50.6681 36.5204 49.0558 38.4441 47.4626C39.3867 46.6803 40.5698 46.6803 41.5124 47.4435C43.4553 49.0367 45.3694 50.6585 47.168 52.4139C47.5816 52.8241 47.7259 53.3298 47.4758 53.8736C47.2354 54.4173 46.7737 54.6558 46.187 54.6654C44.119 54.6654 42.0414 54.6654 39.9734 54.6654Z" fill="#FECD0B"/>
<path d="M40.0981 31.6736C41.0311 31.6736 41.9641 31.6736 42.8971 31.6736C43.6377 31.6736 44.1379 31.9885 44.3591 32.5704C44.5803 33.1524 44.4168 33.7152 43.8686 34.2018C43.1664 34.8219 42.4547 35.4515 41.7333 36.0526C40.6849 36.9303 39.4826 36.9303 38.4245 36.0526C37.7031 35.4515 36.9914 34.8314 36.2892 34.2018C35.741 33.7152 35.5871 33.1524 35.8083 32.5704C36.0295 31.9885 36.5297 31.6832 37.2703 31.6832C38.2033 31.6641 39.1459 31.6736 40.0981 31.6736Z" fill="#FECD0B"/>
</svg>
