<svg width="11" height="15" viewBox="0 0 11 15" fill="none" xmlns="http://www.w3.org/2000/svg">
<path d="M0.194843 15C0.257101 14.79 0.3159 14.587 0.375852 14.3839C0.857772 12.7514 1.33969 11.1178 1.82046 9.48527C1.82622 9.46691 1.84698 9.44397 1.82738 9.42791C1.81354 9.41643 1.79164 9.43249 1.77319 9.43823C1.20826 9.60802 0.643329 9.77896 0.0783985 9.94989C0.0553401 9.95678 0.0311288 9.96137 0 9.9694C0.0553401 9.80075 0.108374 9.64014 0.161409 9.47838C0.242113 9.23402 0.322817 8.98852 0.401216 8.74301C0.412745 8.70859 0.427733 8.69024 0.463473 8.67877C1.03878 8.50668 1.61178 8.3323 2.18709 8.16251C2.24127 8.14645 2.26664 8.12007 2.28278 8.06615C3.04371 5.48833 3.80579 2.91165 4.56787 0.333832C4.63474 0.110123 4.77885 0.0022833 5.01635 0.0022833C5.82916 0.0022833 6.64197 0.00687221 7.45477 -1.11576e-05C7.70265 -0.00230561 7.87905 0.199606 7.80065 0.46691C7.15963 2.63632 6.5186 4.80573 5.87758 6.97399C5.87297 6.9889 5.86951 7.00267 5.86259 7.0279C6.4771 6.8432 7.08469 6.65965 7.70265 6.47379C7.6623 6.60917 7.62541 6.73651 7.58851 6.86385C7.50089 7.16213 7.41212 7.46041 7.3268 7.75984C7.31642 7.79655 7.29798 7.81146 7.26339 7.82064C6.6731 7.98699 6.0828 8.15448 5.49251 8.31968C5.45677 8.33001 5.43947 8.34377 5.42794 8.38049C5.03826 9.69177 4.64742 11.0008 4.25542 12.3097C4.23583 12.3751 4.27272 12.3614 4.30731 12.3614C6.41484 12.3614 8.52238 12.3637 10.6299 12.3591C10.8732 12.3579 11.0623 12.5495 10.9804 12.8317C10.804 13.4443 10.6241 14.0558 10.4466 14.6684C10.382 14.8899 10.2356 15 10.0027 15C6.75726 15 3.51294 15 0.267477 15C0.245572 15 0.222513 15 0.194843 15Z" fill="#FDFDFD"/>
</svg>
