<svg width="21" height="15" viewBox="0 0 21 15" fill="none" xmlns="http://www.w3.org/2000/svg">
<path d="M16.1988 14.1655C15.8106 13.8206 15.8106 13.2614 16.1988 12.9164L17.1528 12.0689H12.0988C11.2095 12.0689 10.3986 11.6174 10.0109 10.9064L5.59847 2.8138C5.54309 2.71223 5.42724 2.64773 5.30021 2.64773H0.994226C0.445131 2.64773 0 2.25229 0 1.76449C0 1.27669 0.445131 0.881256 0.994226 0.881256H5.30021C6.18943 0.881256 7.00041 1.3328 7.38804 2.04374L11.8005 10.1364C11.8559 10.2379 11.9717 10.3024 12.0988 10.3024H17.1528L16.1988 9.45492C15.8106 9.11 15.8106 8.55076 16.1988 8.20584C16.5871 7.86091 17.2166 7.86091 17.6049 8.20584L20.2561 10.5611C20.6444 10.9061 20.6444 11.4653 20.2561 11.8102L17.6049 14.1655C17.2166 14.5104 16.5871 14.5104 16.1988 14.1655Z" fill="#A7A7A7"/>
</svg>
