<svg width="49" height="45" viewBox="0 0 49 45" fill="none" xmlns="http://www.w3.org/2000/svg">
<rect x="0.5" y="0.5" width="48" height="44" rx="1.5" stroke="#212E52"/>
<rect x="9" y="9" width="31" height="2" fill="white"/>
<rect x="9" y="15" width="31" height="2" fill="white"/>
<rect x="9" y="21" width="31" height="2" fill="white"/>
<path d="M15.2 36L15.19 31.8L13.13 35.26H12.4L10.35 31.89V36H8.83V29H10.17L12.79 33.35L15.37 29H16.7L16.72 36H15.2ZM23.8008 34.7V36H18.3808V29H23.6708V30.3H19.9908V31.82H23.2408V33.08H19.9908V34.7H23.8008ZM31.5098 29V36H30.1798L26.6898 31.75V36H25.0898V29H26.4298L29.9098 33.25V29H31.5098ZM36.2759 36.12C35.2759 36.12 34.4959 35.8433 33.9359 35.29C33.3826 34.7367 33.1059 33.9467 33.1059 32.92V29H34.7259V32.86C34.7259 34.1133 35.2459 34.74 36.2859 34.74C36.7926 34.74 37.1793 34.59 37.4459 34.29C37.7126 33.9833 37.8459 33.5067 37.8459 32.86V29H39.4459V32.92C39.4459 33.9467 39.1659 34.7367 38.6059 35.29C38.0526 35.8433 37.2759 36.12 36.2759 36.12Z" fill="#FECD0B"/>
</svg>
