<svg width="22" height="20" viewBox="0 0 22 20" fill="none" xmlns="http://www.w3.org/2000/svg">
<path d="M18.3337 4.5H15.5837V3.58334C15.5837 2.85399 15.2939 2.15452 14.7782 1.63879C14.2625 1.12307 13.563 0.833336 12.8337 0.833336H9.16699C8.43765 0.833336 7.73817 1.12307 7.22245 1.63879C6.70672 2.15452 6.41699 2.85399 6.41699 3.58334V4.5H3.66699C2.93765 4.5 2.23817 4.78973 1.72245 5.30546C1.20672 5.82118 0.916992 6.52066 0.916992 7.25V16.4167C0.916992 17.146 1.20672 17.8455 1.72245 18.3612C2.23817 18.8769 2.93765 19.1667 3.66699 19.1667H18.3337C19.063 19.1667 19.7625 18.8769 20.2782 18.3612C20.7939 17.8455 21.0837 17.146 21.0837 16.4167V7.25C21.0837 6.52066 20.7939 5.82118 20.2782 5.30546C19.7625 4.78973 19.063 4.5 18.3337 4.5ZM8.25033 3.58334C8.25033 3.34022 8.3469 3.10706 8.51881 2.93516C8.69072 2.76325 8.92388 2.66667 9.16699 2.66667H12.8337C13.0768 2.66667 13.3099 2.76325 13.4818 2.93516C13.6537 3.10706 13.7503 3.34022 13.7503 3.58334V4.5H8.25033V3.58334ZM18.3337 17.3333H3.66699C3.42388 17.3333 3.19072 17.2368 3.01881 17.0649C2.8469 16.8929 2.75033 16.6598 2.75033 16.4167V12.0533C3.42826 12.5076 4.22593 12.7501 5.04199 12.75H8.25033V13.6667C8.25033 13.9098 8.3469 14.1429 8.51881 14.3149C8.69072 14.4868 8.92388 14.5833 9.16699 14.5833H12.8337C13.0768 14.5833 13.3099 14.4868 13.4818 14.3149C13.6537 14.1429 13.7503 13.9098 13.7503 13.6667V12.75H16.9587C17.7747 12.7501 18.5724 12.5076 19.2503 12.0533V16.4167C19.2503 16.6598 19.1537 16.8929 18.9818 17.0649C18.8099 17.2368 18.5768 17.3333 18.3337 17.3333ZM10.0837 12.75V10.9167H11.917V12.75H10.0837ZM16.9587 10.9167H13.7503V10C13.7503 9.75689 13.6537 9.52373 13.4818 9.35182C13.3099 9.17991 13.0768 9.08334 12.8337 9.08334H9.16699C8.92388 9.08334 8.69072 9.17991 8.51881 9.35182C8.3469 9.52373 8.25033 9.75689 8.25033 10V10.9167H5.04199C4.4342 10.9167 3.85131 10.6752 3.42154 10.2455C2.99177 9.81569 2.75033 9.23279 2.75033 8.625V7.25C2.75033 7.00689 2.8469 6.77373 3.01881 6.60182C3.19072 6.42991 3.42388 6.33334 3.66699 6.33334H18.3337C18.5768 6.33334 18.8099 6.42991 18.9818 6.60182C19.1537 6.77373 19.2503 7.00689 19.2503 7.25V8.625C19.2503 9.23279 19.0089 9.81569 18.5791 10.2455C18.1493 10.6752 17.5664 10.9167 16.9587 10.9167Z" fill="#0C1937"/>
</svg>
