<svg width="18" height="18" viewBox="0 0 18 18" fill="none" xmlns="http://www.w3.org/2000/svg">
<path d="M18 12.7547V16.875C18 17.1734 17.8815 17.4595 17.6705 17.6705C17.4595 17.8815 17.1734 18 16.875 18H12.7547C12.4563 18 12.1702 17.8815 11.9592 17.6705C11.7482 17.4595 11.6297 17.1734 11.6297 16.875C11.6297 16.5766 11.7482 16.2905 11.9592 16.0795C12.1702 15.8685 12.4563 15.75 12.7547 15.75H15.75V12.7547C15.75 12.4563 15.8685 12.1702 16.0795 11.9592C16.2905 11.7482 16.5766 11.6297 16.875 11.6297C17.1734 11.6297 17.4595 11.7482 17.6705 11.9592C17.8815 12.1702 18 12.4563 18 12.7547V12.7547ZM1.125 6.37031C1.42337 6.37031 1.70952 6.25179 1.9205 6.04081C2.13147 5.82983 2.25 5.54368 2.25 5.24531V2.25H5.24531C5.54368 2.25 5.82983 2.13147 6.04081 1.9205C6.25179 1.70952 6.37031 1.42337 6.37031 1.125C6.37031 0.826631 6.25179 0.540483 6.04081 0.329505C5.82983 0.118526 5.54368 0 5.24531 0L1.125 0C0.826631 0 0.540483 0.118526 0.329505 0.329505C0.118526 0.540483 0 0.826631 0 1.125L0 5.24531C0 5.54368 0.118526 5.82983 0.329505 6.04081C0.540483 6.25179 0.826631 6.37031 1.125 6.37031V6.37031ZM5.89395 4.76895H12.1061C12.4044 4.76895 12.6906 4.88747 12.9015 5.09845C13.1125 5.30943 13.2311 5.59558 13.2311 5.89395V12.1061C13.2311 12.4044 13.1125 12.6906 12.9015 12.9015C12.6906 13.1125 12.4044 13.2311 12.1061 13.2311H5.89395C5.59558 13.2311 5.30943 13.1125 5.09845 12.9015C4.88747 12.6906 4.76895 12.4044 4.76895 12.1061V5.89395C4.76895 5.59558 4.88747 5.30943 5.09845 5.09845C5.30943 4.88747 5.59558 4.76895 5.89395 4.76895V4.76895ZM7.01895 10.9811H10.9811V7.01895H7.01895V10.9811ZM16.875 0H12.7547C12.4563 0 12.1702 0.118526 11.9592 0.329505C11.7482 0.540483 11.6297 0.826631 11.6297 1.125C11.6297 1.42337 11.7482 1.70952 11.9592 1.9205C12.1702 2.13147 12.4563 2.25 12.7547 2.25H15.75V5.24531C15.75 5.54368 15.8685 5.82983 16.0795 6.04081C16.2905 6.25179 16.5766 6.37031 16.875 6.37031C17.1734 6.37031 17.4595 6.25179 17.6705 6.04081C17.8815 5.82983 18 5.54368 18 5.24531V1.125C18 0.826631 17.8815 0.540483 17.6705 0.329505C17.4595 0.118526 17.1734 0 16.875 0V0ZM5.24531 15.75H2.25V12.7547C2.25 12.4563 2.13147 12.1702 1.9205 11.9592C1.70952 11.7482 1.42337 11.6297 1.125 11.6297C0.826631 11.6297 0.540483 11.7482 0.329505 11.9592C0.118526 12.1702 0 12.4563 0 12.7547L0 16.875C0 17.1734 0.118526 17.4595 0.329505 17.6705C0.540483 17.8815 0.826631 18 1.125 18H5.24531C5.54368 18 5.82983 17.8815 6.04081 17.6705C6.25179 17.4595 6.37031 17.1734 6.37031 16.875C6.37031 16.5766 6.25179 16.2905 6.04081 16.0795C5.82983 15.8685 5.54368 15.75 5.24531 15.75Z" fill="#0C1937"/>
</svg>
