<svg width="23" height="24" viewBox="0 0 23 24" fill="none" xmlns="http://www.w3.org/2000/svg">
<path d="M3.02996 13.8553C2.55407 12.9464 2.31612 12.4919 2.31612 12C2.31612 11.5081 2.55407 11.0536 3.02996 10.1447L4.34653 7.63L5.63918 5.33641C6.18854 4.36166 6.46322 3.87428 6.92059 3.60181C7.37797 3.32935 7.93734 3.31987 9.05608 3.30091L11.4704 3.26L13.8846 3.30091C15.0034 3.31987 15.5627 3.32935 16.0201 3.60181C16.4775 3.87428 16.7522 4.36166 17.3015 5.33641L18.5942 7.63L19.9108 10.1447C20.3866 11.0536 20.6246 11.5081 20.6246 12C20.6246 12.4919 20.3866 12.9464 19.9108 13.8553L18.5942 16.37L17.3015 18.6636C16.7522 19.6383 16.4775 20.1257 16.0201 20.3982C15.5627 20.6707 15.0034 20.6801 13.8846 20.6991L11.4704 20.74L9.05608 20.6991C7.93734 20.6801 7.37797 20.6707 6.92059 20.3982C6.46322 20.1257 6.18854 19.6383 5.63918 18.6636L4.34653 16.37L3.02996 13.8553Z" stroke="#FECD0B" strokeWidth="2"/>
<ellipse cx="11.4705" cy="12" rx="2.82353" ry="3" stroke="#FECD0B" strokeWidth="2"/>
</svg>
