<svg width="23" height="24" viewBox="0 0 23 24" fill="none" xmlns="http://www.w3.org/2000/svg">
<path d="M2.05859 12L1.25972 11.3985L0.806827 12L1.25972 12.6015L2.05859 12ZM10.5292 13C11.0815 13 11.5292 12.5523 11.5292 12C11.5292 11.4477 11.0815 11 10.5292 11V13ZM5.02443 6.3985L1.25972 11.3985L2.85746 12.6015L6.62217 7.6015L5.02443 6.3985ZM1.25972 12.6015L5.02443 17.6015L6.62217 16.3985L2.85746 11.3985L1.25972 12.6015ZM2.05859 13H10.5292V11H2.05859V13Z" fill="white"/>
<path d="M12.8904 20.5848L12.716 21.5695L12.8904 20.5848ZM10.0553 19.6081L9.28905 20.2506L10.0553 19.6081ZM13.8358 20.7522L13.6614 21.7369L13.8358 20.7522ZM19.8095 20.7209L20.452 21.4872L19.8095 20.7209ZM19.8095 3.27908L20.452 2.5128L19.8095 3.27908ZM13.0648 4.39986L14.0102 4.23245L13.6614 2.26309L12.716 2.4305L13.0648 4.39986ZM19.882 9.15585V14.8442H21.882V9.15585H19.882ZM14.0102 19.7676L13.0648 19.6001L12.716 21.5695L13.6614 21.7369L14.0102 19.7676ZM10.5879 8.13193V7.3539H8.58789V8.13193H10.5879ZM10.5879 16.6461V16.066H8.58789V16.6461H10.5879ZM13.0648 19.6001C12.2504 19.4559 11.7306 19.3621 11.3507 19.245C10.9973 19.1361 10.8848 19.041 10.8216 18.9656L9.28905 20.2506C9.69327 20.7327 10.2092 20.9861 10.7618 21.1564C11.2879 21.3184 11.9519 21.4342 12.716 21.5695L13.0648 19.6001ZM8.58789 16.6461C8.58789 17.4221 8.58609 18.0961 8.65395 18.6424C8.72523 19.2163 8.88483 19.7685 9.28905 20.2506L10.8216 18.9656C10.7584 18.8902 10.6843 18.7629 10.6387 18.3959C10.5897 18.0013 10.5879 17.4731 10.5879 16.6461H8.58789ZM19.882 14.8442C19.882 16.534 19.8796 17.6938 19.7579 18.5488C19.6402 19.3763 19.4335 19.7312 19.167 19.9546L20.452 21.4872C21.2581 20.8114 21.5876 19.8871 21.738 18.8306C21.8844 17.8016 21.882 16.4726 21.882 14.8442H19.882ZM13.6614 21.7369C15.265 22.0209 16.5732 22.255 17.6119 22.2902C18.6784 22.3264 19.646 22.163 20.452 21.4872L19.167 19.9546C18.9006 20.1781 18.5151 20.3197 17.6797 20.2913C16.8165 20.2621 15.6741 20.0622 14.0102 19.7676L13.6614 21.7369ZM14.0102 4.23245C15.6741 3.93779 16.8165 3.73792 17.6797 3.70865C18.5151 3.68032 18.9006 3.82195 19.167 4.04536L20.452 2.5128C19.646 1.83698 18.6784 1.67363 17.6119 1.7098C16.5732 1.74503 15.265 1.97913 13.6614 2.26309L14.0102 4.23245ZM21.882 9.15585C21.882 7.52736 21.8844 6.19837 21.738 5.16941C21.5876 4.11294 21.2581 3.18863 20.452 2.5128L19.167 4.04536C19.4335 4.26878 19.6402 4.62368 19.7579 5.4512C19.8796 6.30623 19.882 7.46599 19.882 9.15585H21.882ZM12.716 2.4305C11.9519 2.56581 11.2879 2.68156 10.7618 2.84364C10.2092 3.0139 9.69327 3.26734 9.28905 3.74943L10.8216 5.03444C10.8848 4.95904 10.9973 4.86387 11.3507 4.755C11.7306 4.63794 12.2504 4.54406 13.0648 4.39986L12.716 2.4305ZM10.5879 7.3539C10.5879 6.5269 10.5897 5.99867 10.6387 5.60412C10.6843 5.23715 10.7584 5.10984 10.8216 5.03444L9.28905 3.74943C8.88483 4.23152 8.72523 4.7837 8.65395 5.3576C8.58609 5.9039 8.58789 6.57792 8.58789 7.3539H10.5879Z" fill="white"/>
</svg>
