<svg width="14" height="14" viewBox="0 0 14 14" fill="none" xmlns="http://www.w3.org/2000/svg">
<ellipse cx="6.99984" cy="4.66634" rx="2.33333" ry="2.33333" fill="#7E869E" fillOpacity="0.25" stroke="white" strokeWidth="1.2" strokeLinecap="round"/>
<path fillRule="evenodd" clipRule="evenodd" d="M7.2215 8.737C6.70228 8.72012 6.18056 8.76259 5.67387 8.86442C4.8051 9.03901 3.99868 9.38457 3.34008 9.87853C2.68111 10.3728 2.18449 11.0056 1.92723 11.7257C1.81574 12.0377 1.97834 12.3811 2.29039 12.4926C2.60244 12.604 2.94579 12.4414 3.05728 12.1294C3.22405 11.6626 3.56056 11.2132 4.06008 10.8385C4.55996 10.4636 5.19656 10.1843 5.9103 10.0409C6.01714 10.0194 6.12487 10.0012 6.23322 9.98613C6.3764 9.44611 6.73982 8.99574 7.2215 8.737Z" fill="white"/>
<path d="M10.5 8.16699L10.5 12.8337" stroke="white" strokeWidth="1.2" strokeLinecap="round"/>
<path d="M12.8335 10.5L8.16683 10.5" stroke="white" strokeWidth="1.2" strokeLinecap="round"/>
</svg>
