<svg width="14" height="14" viewBox="0 0 14 14" fill="none" xmlns="http://www.w3.org/2000/svg">
<path d="M6.93276 12.4266L7.00347 12.9216L6.93276 12.4266ZM5.94246 12.5227L5.9072 13.0214L5.94246 12.5227ZM4.12847 10.9494L3.63972 11.0548L4.12847 10.9494ZM11.9022 10.4676L11.4602 10.2338L11.9022 10.4676ZM11.0136 11.4921L11.3075 11.8966L11.0136 11.4921ZM11.0136 2.50855L11.3075 2.10405L11.0136 2.50855ZM11.9022 3.53307L12.3442 3.29932L11.9022 3.53307ZM5.85709 1.48587L5.80048 0.989083L5.85709 1.48587ZM6.97633 2.08533L7.84996 2.21013L7.99138 1.22019L7.11775 1.09538L6.97633 2.08533ZM11.7502 6.7071V7.29355H12.7502V6.7071H11.7502ZM7.84996 11.7905L6.86205 11.9316L7.00347 12.9216L7.99138 12.7805L7.84996 11.7905ZM6.86205 11.9316C6.31662 12.0096 6.12359 12.0342 5.97772 12.0239L5.9072 13.0214C6.18682 13.0412 6.51215 12.9918 7.00347 12.9216L6.86205 11.9316ZM3.5835 9.95547C3.5835 10.4518 3.5806 10.7808 3.63972 11.0548L4.61723 10.844C4.58639 10.701 4.5835 10.5064 4.5835 9.95547H3.5835ZM5.97772 12.0239C5.3123 11.9769 4.7579 11.496 4.61723 10.844L3.63972 11.0548C3.87417 12.1416 4.79817 12.943 5.9072 13.0214L5.97772 12.0239ZM11.7502 7.29355C11.7502 8.14089 11.7497 8.74459 11.7085 9.21958C11.668 9.68712 11.5906 9.98724 11.4602 10.2338L12.3442 10.7013C12.5618 10.2899 12.6583 9.84163 12.7048 9.30599C12.7506 8.77781 12.7502 8.12352 12.7502 7.29355H11.7502ZM7.99138 12.7805C8.81301 12.6631 9.46079 12.571 9.97718 12.4509C10.5009 12.3292 10.9309 12.1702 11.3075 11.8966L10.7197 11.0876C10.494 11.2516 10.2079 11.3707 9.75075 11.4769C9.28636 11.5849 8.68879 11.6707 7.84996 11.7905L7.99138 12.7805ZM11.4602 10.2338C11.2817 10.5712 11.0284 10.8633 10.7197 11.0876L11.3075 11.8966C11.7398 11.5825 12.0944 11.1737 12.3442 10.7013L11.4602 10.2338ZM7.84996 2.21013C8.68879 2.32997 9.28636 2.41578 9.75075 2.52373C10.2079 2.62999 10.494 2.74907 10.7197 2.91305L11.3075 2.10405C10.9309 1.83045 10.5009 1.67144 9.97718 1.5497C9.46079 1.42966 8.81301 1.33756 7.99138 1.22019L7.84996 2.21013ZM12.7502 6.7071C12.7502 5.87714 12.7506 5.22284 12.7048 4.69467C12.6583 4.15903 12.5618 3.71079 12.3442 3.29932L11.4602 3.76682C11.5906 4.01341 11.668 4.31353 11.7085 4.78107C11.7497 5.25606 11.7502 5.85976 11.7502 6.7071H12.7502ZM10.7197 2.91305C11.0284 3.13738 11.2817 3.42944 11.4602 3.76682L12.3442 3.29932C12.0944 2.82699 11.7398 2.41812 11.3075 2.10405L10.7197 2.91305ZM7.11775 1.09538C6.52717 1.01101 6.13576 0.950882 5.80048 0.989083L5.91369 1.98265C6.08859 1.96273 6.32042 1.99163 6.97633 2.08533L7.11775 1.09538ZM4.5835 4.16062C4.5835 3.49805 4.58767 3.26447 4.63213 3.09414L3.66456 2.84156C3.57932 3.16807 3.5835 3.56405 3.5835 4.16062H4.5835ZM5.80048 0.989083C4.77417 1.10602 3.92546 1.84211 3.66456 2.84156L4.63213 3.09414C4.78867 2.49447 5.2979 2.05282 5.91369 1.98265L5.80048 0.989083Z" fill="white"/>
<path d="M9.3335 6.99967L9.72393 6.68733L9.97381 6.99967L9.72393 7.31202L9.3335 6.99967ZM2.3335 7.49967C2.05735 7.49967 1.8335 7.27582 1.8335 6.99967C1.8335 6.72353 2.05735 6.49967 2.3335 6.49967V7.49967ZM7.3906 3.77066L9.72393 6.68733L8.94306 7.31202L6.60973 4.39536L7.3906 3.77066ZM9.72393 7.31202L7.3906 10.2287L6.60973 9.60399L8.94306 6.68733L9.72393 7.31202ZM9.3335 7.49967H2.3335V6.49967H9.3335V7.49967Z" fill="white"/>
</svg>
