<svg width="18" height="18" viewBox="0 0 18 18" fill="none" xmlns="http://www.w3.org/2000/svg">
<path d="M6.65811 16.7806L6.97433 17.7293H6.97433L6.65811 16.7806ZM11.6581 15.114L11.9743 16.0627L11.9743 16.0626L11.6581 15.114ZM16.7071 4.29289L17.4142 5L16.7071 4.29289ZM12.2929 8.70711L11.5858 8.00001L12.2929 8.70711ZM2 2H16V0H2V2ZM2 3.58579V2H0V3.58579H2ZM6.41421 7.99999L2 3.58579L0.585786 5L4.99999 9.41421L6.41421 7.99999ZM4.99999 9.41421V16.3063H6.99999V9.41421H4.99999ZM4.99999 16.3063C4.99999 17.3301 6.00304 18.0531 6.97433 17.7293L6.34188 15.832C6.66565 15.724 6.99999 15.965 6.99999 16.3063H4.99999ZM6.97433 17.7293L11.9743 16.0627L11.3419 14.1653L6.34188 15.832L6.97433 17.7293ZM11.9743 16.0626C12.5868 15.8585 13 15.2853 13 14.6396H11C11 14.4244 11.1377 14.2333 11.3419 14.1653L11.9743 16.0626ZM13 14.6396V9.41422H11V14.6396H13ZM16 3.58579L11.5858 8.00001L13 9.41422L17.4142 5L16 3.58579ZM16 2V3.58579H18V2H16ZM17.4142 5C17.7893 4.62493 18 4.11622 18 3.58579H16L17.4142 5ZM13 9.41422V9.41422L11.5858 8.00001C11.2107 8.37508 11 8.88379 11 9.41422H13ZM4.99999 9.41421H6.99999C6.99999 8.88377 6.78928 8.37507 6.41421 7.99999L4.99999 9.41421ZM0 3.58579C0 4.11622 0.210714 4.62493 0.585786 5L2 3.58579V3.58579H0ZM16 2H18C18 0.895431 17.1046 0 16 0V2ZM2 0C0.895431 0 0 0.89543 0 2H2V2V0Z" fill="#0C1937"/>
</svg>
