<svg width="41" height="41" viewBox="0 0 41 41" fill="none" xmlns="http://www.w3.org/2000/svg">
<path fillRule="evenodd" clipRule="evenodd" d="M20.4994 3.41602C16.3295 3.41602 12.7449 5.90581 11.1441 9.47265C11.0012 9.79093 10.9058 10.0033 10.8337 10.1549C10.816 10.1922 10.8016 10.2217 10.7901 10.2447L10.7563 10.2459C10.6477 10.2492 10.4987 10.2494 10.2494 10.2494C6.4754 10.2494 3.41602 13.3087 3.41602 17.0827C3.41602 20.8566 6.4754 23.916 10.2494 23.916H10.5425L13.9591 20.4994H10.2494C8.36238 20.4994 6.83268 18.9697 6.83268 17.0827C6.83268 15.1957 8.36238 13.666 10.2494 13.666L10.359 13.6662C10.7136 13.667 11.1264 13.6679 11.4696 13.5988C11.8327 13.5258 12.2524 13.4045 12.6649 13.1375C13.0774 12.8705 13.3599 12.5372 13.5753 12.2359C13.7236 12.0283 13.8406 11.7876 13.9194 11.622C14.0095 11.4323 14.1205 11.1852 14.2528 10.8904L14.2528 10.8902L14.2612 10.8716C15.3312 8.48756 17.7238 6.83268 20.4994 6.83268C23.2749 6.83268 25.6675 8.48757 26.7375 10.8716L26.746 10.8905C26.8783 11.1852 26.9892 11.4323 27.0793 11.622C27.1581 11.7876 27.2751 12.0283 27.4234 12.2359C27.6388 12.5372 27.9213 12.8705 28.3338 13.1375C28.7463 13.4045 29.166 13.5258 29.5291 13.5988C29.8723 13.6679 30.2851 13.667 30.6397 13.6662L30.7494 13.666C32.6363 13.666 34.166 15.1957 34.166 17.0827C34.166 18.9697 32.6363 20.4994 30.7494 20.4994H27.0396L30.4563 23.916H30.7494C34.5233 23.916 37.5827 20.8566 37.5827 17.0827C37.5827 13.3087 34.5233 10.2494 30.7494 10.2494C30.5 10.2494 30.351 10.2492 30.2424 10.2459L30.2086 10.2447C30.1971 10.2217 30.1828 10.1922 30.165 10.1549C30.0929 10.0033 29.9975 9.79093 29.8546 9.47265C28.2538 5.90581 24.6692 3.41602 20.4994 3.41602ZM10.7577 10.3069L10.758 10.3063L10.758 10.3063C10.7578 10.3067 10.7577 10.3069 10.7577 10.3069ZM30.2407 10.3063L30.241 10.3068C30.2411 10.307 30.241 10.3068 30.2407 10.3063L30.2407 10.3063Z" fill="#757575"/>
<path d="M20.5003 20.5L19.2924 19.292L20.5003 18.0841L21.7083 19.292L20.5003 20.5ZM22.2087 35.875C22.2087 36.8185 21.4438 37.5833 20.5003 37.5833C19.5568 37.5833 18.792 36.8185 18.792 35.875L22.2087 35.875ZM12.459 26.1254L19.2924 19.292L21.7083 21.708L14.875 28.5413L12.459 26.1254ZM21.7083 19.292L28.5416 26.1254L26.1257 28.5413L19.2924 21.708L21.7083 19.292ZM22.2087 20.5L22.2087 35.875L18.792 35.875L18.792 20.5L22.2087 20.5Z" fill="#757575"/>
</svg>
