<svg width="18" height="17" viewBox="0 0 18 17" fill="none" xmlns="http://www.w3.org/2000/svg">
<path d="M2.28698 16.9952C3.06653 17 3.84607 16.9952 4.62562 16.9952C8.29324 16.9952 11.9609 16.9952 15.6285 16.9952C15.9009 16.9952 16.1404 16.9371 16.3235 16.7147C16.4597 16.5502 16.502 16.3568 16.502 16.144C16.4973 15.2105 16.502 14.2723 16.502 13.3388C16.502 13.276 16.502 13.2083 16.502 13.1309C16.7508 13.1309 16.9763 13.1309 17.2064 13.1309C17.6948 13.126 18.0047 12.8068 18.0047 12.3038C18.0047 10.7949 18.0047 9.28592 18.0047 7.77696C18.0047 7.27397 17.6948 6.95477 17.2017 6.94993C16.9763 6.94509 16.7462 6.94993 16.502 6.94993C16.502 6.86287 16.502 6.79516 16.502 6.73229C16.502 5.80853 16.502 4.88478 16.502 3.96102C16.502 3.39033 16.2155 3.09531 15.6567 3.09047C14.7597 3.09047 13.8628 3.09047 12.9658 3.09047C12.9048 3.09047 12.839 3.09047 12.7545 3.09047C12.7545 3.00341 12.7545 2.94054 12.7545 2.87767C12.7545 2.21024 12.7545 1.53798 12.7545 0.870555C12.7545 0.309531 12.4493 0 11.9045 0C8.71119 0 5.51787 0 2.32455 0C1.14114 0 0.258283 0.764154 0.0281764 1.95391C0.0234803 1.97809 0.00939212 1.99744 0 2.01679C0 6.3357 0 10.6595 0 14.9784C0.0281764 15.0945 0.0563527 15.2105 0.0892252 15.3218C0.375685 16.3229 1.24446 16.9903 2.28698 16.9952ZM16.4832 8.50725C16.4832 9.52774 16.4832 10.5434 16.4832 11.5881C16.2765 11.5881 16.0793 11.5881 15.8821 11.5881C15.3186 11.5881 14.7597 11.5977 14.1962 11.5832C13.5481 11.5687 13.0034 11.1286 12.8155 10.495C12.6277 9.86629 12.8437 9.16501 13.3791 8.80228C13.5904 8.65718 13.8581 8.53144 14.1023 8.52176C14.8912 8.48307 15.6801 8.50725 16.4832 8.50725ZM14.7409 4.63329C14.8161 4.63329 14.8912 4.63329 14.9851 4.63329C14.9851 5.40711 14.9851 6.16643 14.9851 6.94993C14.7409 6.94993 14.5061 6.94509 14.2666 6.94993C13.2899 6.96927 12.4727 7.35135 11.881 8.15903C11.1531 9.15533 11.031 10.258 11.5523 11.3801C12.0783 12.5021 12.9893 13.0777 14.2009 13.1309C14.4592 13.1405 14.7175 13.1309 14.9851 13.1309C14.9851 13.9047 14.9851 14.664 14.9851 15.4475C14.9147 15.4475 14.8536 15.4475 14.7973 15.4475C10.646 15.4475 6.48996 15.4475 2.33864 15.4475C2.06157 15.4475 1.83146 15.3701 1.65771 15.1428C1.52622 14.9735 1.50274 14.7752 1.50274 14.5624C1.50274 11.2785 1.50274 7.99943 1.50274 4.71551C1.50274 4.65263 1.50274 4.58492 1.50274 4.49787C2.07566 4.69132 2.64858 4.62361 3.21211 4.62361C7.05818 4.63812 10.8996 4.63329 14.7409 4.63329ZM1.54031 2.06999C1.64362 1.77013 1.9066 1.567 2.21654 1.54765C2.25881 1.54765 2.29637 1.54765 2.33864 1.54765C5.2455 1.54765 8.14767 1.54765 11.0545 1.54765C11.1109 1.54765 11.1719 1.54765 11.2471 1.54765C11.2471 2.06999 11.2471 2.56814 11.2471 3.09531C11.186 3.09531 11.1297 3.09531 11.0733 3.09531C8.16175 3.09531 5.2502 3.09531 2.34333 3.09531C1.74224 3.09531 1.36655 2.60199 1.54031 2.06999Z" fill="#F2F2F2"/>
<path d="M13.4961 10.0501C13.5008 10.4708 13.8389 10.8142 14.2475 10.8142C14.656 10.8142 14.9941 10.4612 14.9941 10.0452C14.9941 9.62447 14.656 9.27624 14.2475 9.27141C13.8389 9.26657 13.4961 9.62447 13.4961 10.0501Z" fill="#F2F2F2"/>
</svg>
